<?xml version="1.0" encoding="UTF-8"?>
<!DOCTYPE svg PUBLIC "-//W3C//DTD SVG 1.1//EN" "http://www.w3.org/Graphics/SVG/1.1/DTD/svg11.dtd">
<!-- Creator: CorelDRAW 2019 (64-Bit) -->
<svg xmlns="http://www.w3.org/2000/svg" xml:space="preserve" width="120mm" height="50mm" version="1.1" style="shape-rendering:geometricPrecision; text-rendering:geometricPrecision; image-rendering:optimizeQuality; fill-rule:evenodd; clip-rule:evenodd"
viewBox="0 0 12000 5000"
 xmlns:xlink="http://www.w3.org/1999/xlink"
 xmlns:xodm="http://www.corel.com/coreldraw/odm/2003">
 <defs>
  <style type="text/css">
   <![CDATA[
    .fil2 {fill:#1A4124}
    .fil1 {fill:#93B00C}
    .fil0 {fill:#CF0907}
   ]]>
  </style>
 </defs>
 <g id="Layer_x0020_1">
  <metadata id="CorelCorpID_0Corel-Layer"/>
  <g id="_3014385292944">
   <g>
    <path class="fil0" d="M5914.1 4243.36l-3.95 -392.75c200.35,-26.33 460.38,-18.44 450.83,197.88 -9.12,206.38 -251.03,215.66 -446.88,194.87zm-4.89 -995.3c182.83,-22.83 405.64,-21.15 392.03,180.3 -11.94,176.99 -200.81,182.34 -389.86,161.69l-2.17 -341.99zm-332.44 -269.04l-1.13 1533.45c417.65,3.34 841.97,59.58 1046.64,-202.04 112.33,-143.58 145.22,-490 -190.92,-601.78 3.13,-3.74 8.42,-13.85 10.16,-10.53 2.48,4.74 345.47,-238.08 136.29,-538.07 -172.38,-247.16 -697.94,-184.58 -1001.04,-181.03z"/>
    <path class="fil0" d="M8702.21 4512.26l314.81 0.11c-0.36,-221.63 -43.19,-303.56 91.54,-407.7l272.86 401.81 365.37 5.41 -413.61 -625.69 377.13 -475.17 -305.71 -4.02 -388.02 412.68 -0.81 -882.15 -308.91 -0.45 -4.65 1575.17z"/>
    <path class="fil0" d="M7047.45 4110.5c98.49,-81.85 141.87,-133.97 323.28,-107.13 10.47,139.72 -0.02,232.61 -108.32,275.15 -162.21,63.69 -223.23,-19.42 -214.96,-168.02zm-248.21 -623.45l64.36 219.05c59.58,-13.54 524.72,-244.47 498.67,105.29 -318.98,-1.01 -642,66.88 -619.13,420.07 21.61,334.03 468.92,390.43 627.04,174.41 58.24,57.56 22.08,39.61 54.41,106.68l253.3 -0.33c20.42,-102.94 7.5,-396.2 6.27,-516.88 -2.82,-275.85 22.02,-609.02 -448.52,-619.61 -199.44,-4.49 -298.73,48.13 -436.4,111.32z"/>
    <path class="fil0" d="M10019.19 3828.1c-13.76,-273.55 385.77,-309.44 377.33,1.82l-377.33 -1.82zm644.08 593.31l-54.26 -233.58c-129.78,39.36 -193.8,113.83 -373.2,87.03 -135.82,-20.3 -217.28,-100.45 -223.04,-247.25l676.04 0.12c124.24,-717.49 -715.09,-875.55 -954.41,-333.46 -152.12,344.55 9.44,838.67 538.46,835.76 195.86,-1.09 254.55,-57.33 390.41,-108.62z"/>
    <path class="fil0" d="M10875.89 3393.46l-152.01 0.5 -0.1 247.88 146.89 2.87c46.89,278.16 -175.39,1094.76 568.78,846.58l0.08 -248.78c-97.28,16.75 -194.73,48.95 -232.89,-53.96 -7.64,-20.6 -9.62,-42.67 -11.39,-64.56l14.15 -481.37 231.62 -2.28 -0.13 -246.34 -235.18 -0.13 -0.08 -457.57 -322.26 -2.77 -7.48 459.93z"/>
    <path class="fil0" d="M7853.46 4190.05l-74.82 245.11c176.25,55.21 240.59,119.94 471.73,89.13 168.68,-22.51 290.53,-100.31 333.1,-233.67 164.44,-515.21 -557.7,-389.31 -464.38,-626.67 69.88,-124.62 306.39,0.85 371.02,22l66.04 -218.11c-368.17,-250.29 -917.85,15.41 -718.43,396.14 105.24,200.89 348.58,165.68 432.77,262.36 95.31,109.47 -37.96,166.15 -143.09,160.47 -119.28,-6.47 -178.58,-59.86 -273.94,-96.76z"/>
   </g>
   <path class="fil1" d="M5992.11 691.04l-490.27 -5.5c-12.02,484.07 -86.84,1346.15 129.63,1667.4 330.96,491.2 1366.55,506.18 1568.7,-256.86 36.87,-139.21 45.16,-1228.51 21.69,-1405.09l-482.96 -1.38c-45.97,728.9 170.27,1600.55 -362.37,1614.89 -347.99,9.36 -382.96,-292.37 -382.52,-607.15 0.48,-333.74 5.54,-673.23 -1.9,-1006.31z"/>
   <path class="fil1" d="M9712.51 2058.17c-1.44,132.68 19.31,236.22 -82.6,300.52 -74.64,47.1 -215.81,64.34 -285.09,-2.01 -97.59,-93.47 -73.9,-312.89 367.69,-298.51zm-717.29 -631.91l81.77 285.97c127.69,-43.76 206.62,-108.2 371.86,-110.9 143.07,-2.33 284.9,57.09 248.82,213.64 -391.92,26.51 -817.87,62.39 -772.16,530.79 17.59,180.31 151.96,301.14 320.71,329.82 296.67,50.46 331.47,-70.28 502.18,-149.21l22.01 124.6 337.17 5.21c15.17,-203.02 3.23,-441.15 3.14,-644.23 -0.1,-215.21 9.46,-404.89 -114.42,-546.54 -244.22,-279.32 -691.75,-166.61 -1001.08,-39.15z"/>
   <path class="fil1" d="M8082.02 2844.73l3.6 235.77c253.59,65.23 662.13,-112.99 686.64,-513.61l-2.12 -1226.78 -400.99 -6.66c-53.96,196.47 37.19,1086.09 -38.14,1301.29 -60.05,171.56 -161.79,135.56 -248.99,209.99z"/>
   <path class="fil1" d="M7746.63 1551.65l-12.46 -210.93 -344.73 -6.76 -9.42 1332.8 391.53 -13.78 10.22 -679.08c28.4,-227.64 177.8,-279.26 402.99,-286.04l18.18 -389.75c-307.51,5.66 -303.05,99.37 -456.31,253.54z"/>
   <path class="fil2" d="M8144.49 1153.68c106.3,-66.58 183.86,-208.45 421.44,-254.21 -112.95,97.61 -264.19,123.79 -368.82,349.81 351.1,56.22 652.56,-146.55 746.46,-483.64 15.82,-56.82 24.98,-105.24 32.46,-164.91 -301.67,44.86 -837.88,46.54 -831.54,552.95z"/>
   <path class="fil1" d="M1164.52 371.21l3266.25 0c336.21,0 611.28,275.08 611.28,611.28l0 3047.28c0,336.2 -275.09,611.28 -611.28,611.28l-3266.25 0c-336.2,0 -611.28,-275.07 -611.28,-611.28l0 -3047.28c0,-336.21 275.07,-611.28 611.28,-611.28z"/>
   <path class="fil0" d="M3194.24 3528.36c22.23,-95.34 161.99,-99.78 228.06,-405.25 41.02,-189.67 13.13,-419.63 23.4,-626.47 288.52,-96.19 936,4.8 824.01,620.56 -83.42,458.56 -597.48,435.12 -1075.47,411.16zm253.53 -1538.53l-3.25 -795.95c269.46,-61.47 745.84,-16.44 740.91,398.53 -4.21,354.05 -397.31,481.6 -737.66,397.42zm-737.99 2099.51c303.45,26.23 825.07,17.75 1136.37,3.65 1012.54,-45.92 1158.43,-1116.9 740.11,-1621.62 -118.14,-142.55 -164.57,-146.43 -326.43,-244.98 620.29,-575.1 527.26,-1304.3 -315.59,-1475.22 -98.8,-20.03 -747.54,-22.12 -851.42,-4.42l-39.7 2758.44c-27.03,121.52 -75.18,243.75 -133.04,332.27 -109.51,167.55 -162.17,194.38 -210.3,251.88z"/>
   <g>
    <path class="fil2" d="M1676.65 4079.43c-15.39,-134.92 -32.4,-241.72 -16.27,-384.46 17.72,-156.97 73.31,-206.31 101.19,-320.24 -80.08,-78.87 -98.56,-77.25 -146.11,-186.82 -91.66,-211.12 -57.24,-728.31 -56.75,-991.23 0.41,-226.21 13.65,-1256.42 -6.4,-1393.22l-577.07 -3.01 -7.58 1985.25c0.88,632.52 229.63,1098.91 708.99,1293.73z"/>
    <polygon class="fil2" points="2454.17,2867.96 2926.8,2734.59 2933,807.32 2464.2,801.46 "/>
    <path class="fil2" d="M1870.13 4085.2c301.68,-441.54 387.62,-395.29 757.42,-782.24l58.39 -61.73c-60.79,172.4 -287.11,370.15 -389.13,484.89 -323.31,363.58 -182.78,255.86 -356.95,509.33 361.08,-1.7 659.23,-183.22 806.45,-372.98 170.83,-220.23 221.43,-614.4 180.77,-955.52 -253.38,7 -641.25,210.63 -807.24,347.63 -262.66,216.83 -375.24,640.89 -249.71,830.62z"/>
   </g>
  </g>
 </g>
</svg>
